{
  "accessors": [
    {
      "bufferView": 2,
      "componentType": 5126,
      "count": 65532,
      "max": [
        0.4559713304042816,
        1.8538060188293457,
        0.41899871826171875
      ],
      "min": [
        -0.5650924444198608,
        0.6916522979736328,
        -0.3843717575073242
      ],
      "type": "VEC3"
    },
    {
      "bufferView": 2,
      "byteOffset": 786384,
      "componentType": 5126,
      "count": 65532,
      "max": [
        0.9999893307685852,
        1.0,
        0.9999988079071045
      ],
      "min": [
        -0.9999781250953674,
        -0.9952544569969177,
        -0.9999963045120239
      ],
      "type": "VEC3"
    },
    {
      "bufferView": 1,
      "componentType": 5126,
      "count": 65532,
      "max": [
        0.997778058052063,
        0.996794581413269
      ],
      "min": [
        0.0020794495940208435,
        0.002148747444152832
      ],
      "type": "VEC2"
    },
    {
      "bufferView": 0,
      "componentType": 5125,
      "count": 356073,
      "type": "SCALAR"
    },
    {
      "bufferView": 2,
      "byteOffset": 1572768,
      "componentType": 5126,
      "count": 65532,
      "max": [
        0.38362210988998413,
        1.8437464237213135,
        0.40846121311187744
      ],
      "min": [
        -0.5610490441322327,
        0.6916522979736328,
        -0.3819453716278076
      ],
      "type": "VEC3"
    },
    {
      "bufferView": 2,
      "byteOffset": 2359152,
      "componentType": 5126,
      "count": 65532,
      "max": [
        0.9999915957450867,
        0.9999998211860657,
        0.9999997615814209
      ],
      "min": [
        -0.999999463558197,
        -0.9298985600471497,
        -0.9999986290931702
      ],
      "type": "VEC3"
    },
    {
      "bufferView": 1,
      "byteOffset": 524256,
      "componentType": 5126,
      "count": 65532,
      "max": [
        0.9908095598220825,
        0.5335164070129395
      ],
      "min": [
        0.0020782179199159145,
        0.002080976963043213
      ],
      "type": "VEC2"
    },
    {
      "bufferView": 0,
      "byteOffset": 1424292,
      "componentType": 5125,
      "count": 372981,
      "type": "SCALAR"
    },
    {
      "bufferView": 2,
      "byteOffset": 3145536,
      "componentType": 5126,
      "count": 65532,
      "max": [
        0.4517861008644104,
        1.832846999168396,
        0.4120810031890869
      ],
      "min": [
        -0.5663518309593201,
        0.6916522979736328,
        -0.3843717575073242
      ],
      "type": "VEC3"
    },
    {
      "bufferView": 2,
      "byteOffset": 3931920,
      "componentType": 5126,
      "count": 65532,
      "max": [
        0.9999964237213135,
        0.9999985098838806,
        0.9999999403953552
      ],
      "min": [
        -0.9999927282333374,
        -0.9999353885650635,
        -0.9999993443489075
      ],
      "type": "VEC3"
    },
    {
      "bufferView": 1,
      "byteOffset": 1048512,
      "componentType": 5126,
      "count": 65532,
      "max": [
        0.9881538152694702,
        0.533968985080719
      ],
      "min": [
        0.08293277025222778,
        0.002148270606994629
      ],
      "type": "VEC2"
    },
    {
      "bufferView": 0,
      "byteOffset": 2916216,
      "componentType": 5125,
      "count": 368658,
      "type": "SCALAR"
    },
    {
      "bufferView": 2,
      "byteOffset": 4718304,
      "componentType": 5126,
      "count": 9478,
      "max": [
        0.3799414038658142,
        1.7833473682403564,
        0.4122363328933716
      ],
      "min": [
        -0.23437684774398804,
        0.6916522979736328,
        -0.2737576961517334
      ],
      "type": "VEC3"
    },
    {
      "bufferView": 2,
      "byteOffset": 4832040,
      "componentType": 5126,
      "count": 9478,
      "max": [
        0.9991576671600342,
        0.9999295473098755,
        0.9999977350234985
      ],
      "min": [
        -0.9991976022720337,
        -0.9967925548553467,
        -0.9998581409454346
      ],
      "type": "VEC3"
    },
    {
      "bufferView": 1,
      "byteOffset": 1572768,
      "componentType": 5126,
      "count": 9478,
      "max": [
        0.9945229887962341,
        0.588894248008728
      ],
      "min": [
        0.0021286457777023315,
        0.27646148204803467
      ],
      "type": "VEC2"
    },
    {
      "bufferView": 0,
      "byteOffset": 4390848,
      "componentType": 5125,
      "count": 52053,
      "type": "SCALAR"
    }
  ],
  "asset": {
    "extras": {
      "author": "Artur Coelho (https://sketchfab.com/coelhoelectrico)",
      "license": "CC-BY-4.0 (http://creativecommons.org/licenses/by/4.0/)",
      "source": "https://sketchfab.com/3d-models/infancia-de-caim-da2816b8701a47f8b34f80d0adb87be6",
      "title": "Infância De Caim"
    },
    "generator": "Sketchfab-15.77.0",
    "version": "2.0"
  },
  "bufferViews": [
    {
      "buffer": 0,
      "byteLength": 4599060,
      "name": "floatBufferViews",
      "target": 34963
    },
    {
      "buffer": 0,
      "byteLength": 1648592,
      "byteOffset": 4599060,
      "byteStride": 8,
      "name": "floatBufferViews",
      "target": 34962
    },
    {
      "buffer": 0,
      "byteLength": 4945776,
      "byteOffset": 6247652,
      "byteStride": 12,
      "name": "floatBufferViews",
      "target": 34962
    }
  ],
  "buffers": [
    {
      "byteLength": 11193428,
      "uri": "scene.bin"
    }
  ],
  "extensionsUsed": [
    "KHR_materials_unlit"
  ],
  "images": [
    {
      "uri": "textures/main_baseColor.jpeg"
    }
  ],
  "materials": [
    {
      "extensions": {
        "KHR_materials_unlit": {}
      },
      "name": "main",
      "pbrMetallicRoughness": {
        "baseColorTexture": {
          "index": 0
        },
        "metallicFactor": 0.0
      }
    }
  ],
  "meshes": [
    {
      "name": "Object_0",
      "primitives": [
        {
          "attributes": {
            "NORMAL": 1,
            "POSITION": 0,
            "TEXCOORD_0": 2
          },
          "indices": 3,
          "material": 0,
          "mode": 4
        }
      ]
    },
    {
      "name": "Object_1",
      "primitives": [
        {
          "attributes": {
            "NORMAL": 5,
            "POSITION": 4,
            "TEXCOORD_0": 6
          },
          "indices": 7,
          "material": 0,
          "mode": 4
        }
      ]
    },
    {
      "name": "Object_2",
      "primitives": [
        {
          "attributes": {
            "NORMAL": 9,
            "POSITION": 8,
            "TEXCOORD_0": 10
          },
          "indices": 11,
          "material": 0,
          "mode": 4
        }
      ]
    },
    {
      "name": "Object_3",
      "primitives": [
        {
          "attributes": {
            "NORMAL": 13,
            "POSITION": 12,
            "TEXCOORD_0": 14
          },
          "indices": 15,
          "material": 0,
          "mode": 4
        }
      ]
    }
  ],
  "nodes": [
    {
      "children": [
        1
      ],
      "matrix": [
        1.0,
        0.0,
        0.0,
        0.0,
        0.0,
        2.220446049250313e-16,
        -1.0,
        0.0,
        0.0,
        1.0,
        2.220446049250313e-16,
        0.0,
        0.0,
        0.0,
        0.0,
        1.0
      ],
      "name": "Sketchfab_model"
    },
    {
      "children": [
        2
      ],
      "name": "root"
    },
    {
      "children": [
        3
      ],
      "matrix": [
        1.0,
        0.0,
        0.0,
        0.0,
        0.0,
        2.220446049250313e-16,
        1.0,
        0.0,
        0.0,
        -1.0,
        2.220446049250313e-16,
        0.0,
        0.0,
        0.0,
        0.0,
        1.0
      ],
      "name": "GLTF_SceneRootNode"
    },
    {
      "children": [
        4
      ],
      "name": "root_0"
    },
    {
      "children": [
        5,
        6,
        7,
        8
      ],
      "name": "mesh_1"
    },
    {
      "mesh": 0,
      "name": "Object_5"
    },
    {
      "mesh": 1,
      "name": "Object_6"
    },
    {
      "mesh": 2,
      "name": "Object_7"
    },
    {
      "mesh": 3,
      "name": "Object_8"
    }
  ],
  "samplers": [
    {
      "magFilter": 9729,
      "minFilter": 9729,
      "wrapS": 10497,
      "wrapT": 10497
    }
  ],
  "scene": 0,
  "scenes": [
    {
      "name": "Sketchfab_Scene",
      "nodes": [
        0
      ]
    }
  ],
  "textures": [
    {
      "sampler": 0,
      "source": 0
    }
  ]
}
